<svg xmlns="http://www.w3.org/2000/svg" viewBox="0 0 96.24 98.73"><defs><style>.cls-1{isolation:isolate;}.cls-2{fill:#fff;}.cls-3{fill:none;stroke:#fff;stroke-miterlimit:10;}.cls-4{fill:#464241;opacity:0.26;mix-blend-mode:multiply;}</style></defs><title>cuyo</title><g class="cls-1"><g id="Capa_1" data-name="Capa 1"><path class="cls-2" d="M59.43,5.06A46.34,46.34,0,0,0,43.34,7.92a47.79,47.79,0,0,0-31,44.39.64.64,0,0,1,1.28,0A47,47,0,0,1,14.23,45,46.47,46.47,0,0,1,50.49,7.21a45,45,0,0,1,9-.9,46.55,46.55,0,0,1,39.6,22.2A46,46,0,0,1,59.45,98.29,45.49,45.49,0,0,1,44,95.6,46.47,46.47,0,0,1,13.66,52.32a.61.61,0,0,1-.64.62.6.6,0,0,1-.64-.61,49.37,49.37,0,0,0,.56,7.28A47.7,47.7,0,0,0,50.32,98.69a46.58,46.58,0,0,0,9.13.9,47.83,47.83,0,0,0,40.73-22.82A47.26,47.26,0,0,0,59.43,5.06Zm-47,47.25h0Zm0,0h0Z" transform="translate(-12.38 -5.06)"/><path class="cls-2" d="M71.86,12.83a41.86,41.86,0,0,1,8.27,3.85q-1.95-1.12-4-2.07t-4.29-1.78M59,9.7a36.86,36.86,0,0,0-7.68.79h.58a59.69,59.69,0,0,1,12,1.14A52.46,52.46,0,0,1,86.31,22.09a59.85,59.85,0,0,1,9,8.9,38.55,38.55,0,0,0-7.91-10.12A42.47,42.47,0,0,0,76.6,13.66,42,42,0,0,0,64.16,10,41,41,0,0,0,59,9.7Z" transform="translate(-12.38 -5.06)"/><path class="cls-3" d="M89.13,74a17.56,17.56,0,0,0,3.15-.33,3.09,3.09,0,0,0,2-1c1-1.64-1.47-2.5-2.89-2.81a44.69,44.69,0,0,0,2.84-6.92c1.2-3.83,2.41-9.61-2.74-11a25,25,0,0,0-6-.58c-2.05,0-4.09.06-6.14.23-.69,0-1.39.12-2.09.19a10.3,10.3,0,0,0-3.47-2.31,2.38,2.38,0,0,0-3.29,1.92,6.37,6.37,0,0,0-5.61.4,2.58,2.58,0,0,0-.64,4,6.86,6.86,0,0,0,.64.68.39.39,0,0,0-.26.31c-1.69,1.82-4.93,3-7.1,3.66-6.29,2-14.79,2.49-17.46,9.73A16,16,0,0,0,40.23,81c-1.14.69-3.13,2.17-2.18,3.58.81,1.2,3.12.41,4.31,0a10,10,0,0,0,1.13,1.11c-1.55,1.34-3.26,2.94-3.91,4.91-.37,1.09-.26,2.71,1.15,2.88s3-1,4.1-1.75a44.69,44.69,0,0,0,4-3.18c5.9,2.13,12.38,1.74,18.42.33,7.05-1.66,13.3-4.84,18.11-10.3a38.53,38.53,0,0,0,5.26,1.48c1.19.21,3,.63,4.05-.2s.21-2.55-.6-3.33A13.2,13.2,0,0,0,89.13,74Z" transform="translate(-12.38 -5.06)"/><path class="cls-3" d="M93.19,71.49c.6.59.15.87-.46,1.08a11.38,11.38,0,0,1-3.1.46c.47-.76.92-1.54,1.35-2.32A4,4,0,0,1,93.19,71.49Z" transform="translate(-12.38 -5.06)"/><path class="cls-3" d="M76,51.85c-1.07.13-2.13.28-3.19.46a13.67,13.67,0,0,0-1.33-.64C71.51,48.93,74.37,50.62,76,51.85Z" transform="translate(-12.38 -5.06)"/><path class="cls-3" d="M67.11,51.9c2.56-.39,5.39,1.13,7.34,2.7a7.18,7.18,0,0,1-3.16,2.88.43.43,0,0,0-.31-.12,8,8,0,0,1-5.77-2C63.64,53.66,65.28,52.18,67.11,51.9Z" transform="translate(-12.38 -5.06)"/><path class="cls-3" d="M40.53,84.13a2.86,2.86,0,0,1-1.48.07c-.91-.49.73-1.71,1.56-2.25a11.52,11.52,0,0,0,1.1,1.88A10.19,10.19,0,0,1,40.53,84.13Z" transform="translate(-12.38 -5.06)"/><path class="cls-3" d="M93.13,79.41c-2.55.2-5.39-.94-7.76-1.77a.4.4,0,0,0-.31,0,.43.43,0,0,0-.23.15C80.1,83.24,74,86.38,67,88c-5.95,1.4-12.32,1.77-18.13-.41a.38.38,0,0,0-.49.14c-1.92,1.72-4.09,3.76-6.53,4.66-.37.13-1,.38-1.32.06-.55-.53.08-1.8.34-2.29a15.34,15.34,0,0,1,3.69-4,.4.4,0,0,0,.14-.44.54.54,0,0,0-.21-.36,10.89,10.89,0,0,1-3.73-6c-1.07-3.83-.75-8.69,1.94-11.81,2.23-2.6,5.65-3.71,8.85-4.56,3.6-1,7.26-1.71,10.61-3.45a19.46,19.46,0,0,0,2.23-1.34c-.41,2.81-.19,6.14,3.37,6.28a15.22,15.22,0,0,0,2.94-.25c1-.15,2.12-.58,3.06-.11a30.45,30.45,0,0,1,2.6,2.06,4.84,4.84,0,0,0,6.47-.91c.68-.92.87-2.16,1.55-3,.56-.71,1.49-.7,2.3-1a6.22,6.22,0,0,0,2-1.11c2.29-2,.87-5,1.32-7.6a9.77,9.77,0,0,1,1.65.38,3.78,3.78,0,0,1,2,1.42l-1.23-.38c-.59-.18-.84.76-.25.94l2.07.63a7.94,7.94,0,0,1,.17,3.59A30.11,30.11,0,0,1,93,63.78,41.35,41.35,0,0,1,87.84,74a.4.4,0,0,0,.06.56.51.51,0,0,0,.23.15,16.14,16.14,0,0,1,4.62,2.1C93.74,77.49,95.17,79.26,93.13,79.41Z" transform="translate(-12.38 -5.06)"/><path class="cls-3" d="M80.48,57.93c.51-.21.6-1.16.2-2.12s-1.11-1.59-1.62-1.37-.6,1.15-.2,2.12S80,58.13,80.48,57.93Z" transform="translate(-12.38 -5.06)"/><ellipse class="cls-4" cx="49.04" cy="95.96" rx="47.2" ry="2.76"/></g></g></svg>