<svg xmlns="http://www.w3.org/2000/svg" width="48.122" height="38.296" viewBox="0 0 48.122 38.296">
  <g id="homebutton" transform="translate(0.001 -46.994)">
    <g id="Grupo_3" data-name="Grupo 3" transform="translate(-0.001 46.994)">
      <path id="Trazado_1" data-name="Trazado 1" d="M82.891,120.939,65.728,135.088a.406.406,0,0,1-.015.089.409.409,0,0,0-.015.089v14.327a1.938,1.938,0,0,0,1.91,1.911H79.07V140.042h7.642V151.5H98.173a1.94,1.94,0,0,0,1.911-1.911V135.266a.42.42,0,0,0-.03-.178Z" transform="translate(-58.829 -113.208)" fill="#ddd7fb"/>
      <path id="Trazado_2" data-name="Trazado 2" d="M47.79,65.65l-6.536-5.432V48.039a.92.92,0,0,0-.955-.955H34.567a.919.919,0,0,0-.955.955v5.82L26.329,47.77a3.7,3.7,0,0,0-4.536,0L.331,65.65A.867.867,0,0,0,0,66.291a.967.967,0,0,0,.209.7L2.062,69.2a1.018,1.018,0,0,0,.627.328,1.109,1.109,0,0,0,.717-.209L24.061,52.1,44.716,69.321a.92.92,0,0,0,.627.208h.09a1.019,1.019,0,0,0,.627-.328l1.851-2.209a.966.966,0,0,0,.208-.7A.87.87,0,0,0,47.79,65.65Z" transform="translate(0.001 -46.994)" fill="#ddd7fb"/>
    </g>
  </g>
</svg>
