<svg height="512pt" viewBox="0 0 512 512.001" width="512pt" xmlns="http://www.w3.org/2000/svg"><path d="m431.949219 29.320312c-47.269531-18.90625-109.757813-29.320312-175.949219-29.320312s-128.675781 10.414062-175.949219 29.320312c-51.621093 20.648438-80.050781 49.796876-80.050781 82.078126v96.402343c0 32.28125 28.429688 61.429688 80.050781 82.078125 43.683594 17.472656 100.363281 27.683594 160.949219 29.136719v66.585937h-23.234375c-8.847656-19.179687-28.308594-32.132812-50.132813-32.132812-30.417968 0-55.164062 24.746094-55.164062 55.164062 0 8.472657 1.886719 16.648438 5.523438 24.097657-3.636719 7.445312-5.523438 15.625-5.523438 24.105469 0 30.417968 24.746094 55.164062 55.164062 55.164062 21.824219 0 41.285157-12.953125 50.132813-32.132812h76.472656c8.847657 19.175781 28.304688 32.132812 50.128907 32.132812 30.417968 0 55.167968-24.746094 55.167968-55.167969 0-8.476562-1.890625-16.65625-5.523437-24.101562 3.632812-7.449219 5.523437-15.625 5.523437-24.097657 0-30.417968-24.75-55.167968-55.167968-55.167968-21.824219 0-41.285157 12.957031-50.128907 32.132812h-23.238281v-66.585937c60.585938-1.449219 117.265625-11.660157 160.949219-29.132813 51.621093-20.648437 80.050781-49.796875 80.050781-82.078125v-96.402343c0-32.28125-28.429688-61.429688-80.050781-82.078126zm-126.945313 386.28125c7.132813 0 13.277344-5.023437 14.699219-12.011718 2.371094-11.660156 12.742187-20.125 24.664063-20.125 13.878906 0 25.167968 11.292968 25.167968 25.167968 0 5.496094-1.738281 10.710938-5.027344 15.082032-4.019531 5.34375-4.019531 12.703125.003907 18.042968 3.285156 4.359376 5.023437 9.574219 5.023437 15.074219 0 13.878907-11.289062 25.167969-25.167968 25.167969-11.917969 0-22.292969-8.464844-24.664063-20.125-1.421875-6.988281-7.566406-12.007812-14.699219-12.007812h-98.007812c-7.128906 0-13.277344 5.019531-14.699219 12.007812-2.371094 11.660156-12.742187 20.125-24.664063 20.125-13.875 0-25.167968-11.289062-25.167968-25.167969 0-5.5 1.738281-10.710937 5.023437-15.074219 4.023438-5.339843 4.023438-12.699218.003907-18.042968-3.289063-4.371094-5.027344-9.585938-5.027344-15.082032 0-13.875 11.292968-25.167968 25.167968-25.167968 11.921876 0 22.292969 8.464844 24.664063 20.125 1.421875 6.988281 7.570313 12.011718 14.699219 12.011718zm-15.804687-159.601562c0 18.308594-14.894531 33.199219-33.199219 33.199219s-33.199219-14.894531-33.199219-33.199219 14.894531-33.199219 33.199219-33.199219 33.199219 14.890625 33.199219 33.199219zm-33.199219-63.199219c-110.257812 0-169.921875-29.15625-179.074219-32.988281 43.183594-20.894531 108.933594-33.414062 179.074219-33.414062 70.144531 0 135.890625 12.519531 179.078125 33.414062-8.859375 3.710938-68.796875 32.988281-179.078125 32.988281zm-145.667969-142.476562c15.507813-4.972657 32.40625-9.089844 50.335938-12.285157v65.9375c-17.800781 2.960938-34.671875 6.757813-50.335938 11.3125zm160.667969 46.257812v-66.390625c17.230469.429688 34.085938 1.601563 50.332031 3.472656v66.207032c-16.265625-1.765625-33.105469-2.882813-50.332031-3.289063zm-30 0c-17.226562.40625-34.066406 1.523438-50.332031 3.289063v-66.207032c16.25-1.871093 33.101562-3.042968 50.332031-3.472656zm110.332031 7.394531v-65.941406c17.929688 3.195313 34.828125 7.316406 50.335938 12.285156v64.96875c-15.664063-4.554687-32.535157-8.351562-50.335938-11.3125zm-271-42.132812v63.714844c-11.867187 4.75-22.71875 10.015625-32.339843 15.769531-7.957032-6.667969-17.820313-17.023437-17.992188-30.011719.058594-16.769531 18.648438-34.859375 50.332031-49.472656zm-50.332031 145.957031v-42.5c12.957031 10.597657 29.929688 20.175781 50.589844 28.390625 34.472656 13.707032 77 22.910156 123.101562 26.882813-6.871094 10.113281-10.890625 22.308593-10.890625 35.425781 0 11.09375 2.882813 21.523438 7.925781 30.597656-41.234374-3.957031-78.96875-12.347656-109.53125-24.574218-38.320312-15.324219-61.195312-35.597657-61.195312-54.222657zm452 0c0 18.625-22.875 38.898438-61.191406 54.222657-30.566406 12.226562-68.300782 20.617187-109.53125 24.574218 5.039062-9.074218 7.921875-19.503906 7.921875-30.597656 0-13.117188-4.019531-25.3125-10.890625-35.425781 46.101562-3.96875 88.628906-13.175781 123.101562-26.882813 20.660156-8.214844 37.632813-17.792968 50.589844-28.390625zm-17.992188-66.472656c-9.621093-5.753906-20.472656-11.019531-32.339843-15.769531v-63.714844c31.683593 14.613281 50.273437 32.703125 50.332031 49.472656-.171875 12.976563-10.011719 23.324219-17.992188 30.011719zm0 0"/></svg>