<svg id="Capa_1" enable-background="new 0 0 511.964 511.964" height="512" viewBox="0 0 511.964 511.964" width="512" xmlns="http://www.w3.org/2000/svg"><path d="m511.964 287.463c.007-2.657-1.043-5.208-2.919-7.088-1.876-1.881-4.424-2.938-7.081-2.938l-74.903.004v-54.391c47.551-13.462 82.49-57.257 82.49-109.06 0-62.487-50.837-113.324-113.324-113.324s-113.324 50.837-113.324 113.324c0 51.803 34.94 95.598 82.491 109.06v54.395l-37.688.002c-1.571 0-3.119.37-4.52 1.08l-56.859 28.815v-3.763c0-5.523-4.477-10-10-10h-65.265l-180.016-10.594c-2.744-.159-5.444.817-7.448 2.707s-3.14 4.521-3.14 7.276v62.729c0 5.523 4.477 10 10 10s10-4.477 10-10v-52.123l160.305 9.433v159.81l-160.304 17.341v-45.835c0-5.523-4.477-10-10-10s-10 4.477-10 10v56.976c0 2.839 1.207 5.545 3.32 7.441 1.844 1.656 4.227 2.559 6.68 2.559.357 0 .717-.019 1.076-.058l179.768-19.446h65.024c4.358 0 8.055-2.792 9.424-6.682l44.586 24.071c1.451.784 3.074 1.196 4.723 1.201l34.3.093h.002.028c.015 0 .029-.002.044-.002l40.396.109h.081c16.342-.001 29.661-13.274 29.705-29.624l.005-1.672c.009-3.356-.541-6.626-1.595-9.711h.009.085c8.125 0 15.771-3.154 21.535-8.887 5.784-5.753 8.981-13.414 9.003-21.571.013-4.667-1.018-9.183-2.973-13.285 10.797-4.664 18.384-15.354 18.418-27.79.012-4.43-.919-8.722-2.686-12.655 11.601-4.282 19.906-15.378 19.942-28.384.015-5.819-1.59-11.27-4.39-15.918 20.549-9.193 34.931-29.747 34.995-53.625zm-209.062-173.473c0-51.459 41.865-93.324 93.324-93.324s93.324 41.865 93.324 93.324c0 47.657-35.909 87.08-82.09 92.646-7.268.865-14.686.883-21.953.059-46.428-5.334-82.605-44.871-82.605-92.705zm82.491 112.812c7.197.683 14.47.682 21.667-.001v50.641l-21.667.001zm-184.629 244.991v-158.214h45.563v10.035.007 148.173h-45.563zm250.082-125.56c5.813.016 10.529 4.824 10.513 10.718-.016 5.797-4.642 10.328-10.539 10.327-.021 0-.04 0-.058 0l-68.79-.021c-6.452-.263-11.222-6.446-9.865-12.757 1.033-4.739 5.266-8.303 10.353-8.303zm-9.843 44.19c2.007 2.037 3.108 4.724 3.101 7.566-.016 5.809-4.643 10.348-10.54 10.348-.02 0-.04 0-.057 0l-61.468-.006c-.013 0-.025-.002-.037-.002-5.732-.085-10.382-4.825-10.366-10.566.016-5.792 4.739-10.505 10.571-10.505l61.389.021c2.787.008 5.418 1.125 7.407 3.144zm-41.387 90.48c-.014 5.343-4.366 9.68-9.705 9.68-.009 0-.018 0-.027 0l-40.471-.109c-5.723-.016-10.527-4.85-10.511-10.572.016-5.792 4.739-10.505 10.577-10.505l3.975.006 36.487.099c3.19.008 6.207 1.623 8.007 4.253 1.499 2.189 1.676 4.591 1.668 7.148zm25.935-34.394c-1.996 1.986-4.621 3.037-7.462 3.067l-61.318-.165c-5.768-.062-10.598-4.734-10.583-10.569.017-5.763 4.859-10.513 10.595-10.513l61.363.008c5.779.015 10.528 4.994 10.512 10.727-.007 2.815-1.11 5.459-3.107 7.445zm27.301-120.279c-.036 0-.072 0-.107 0l-58.186-.026-12.069-.006c-.029 0-.057 0-.085 0-8.125 0-15.771 3.154-21.535 8.887-4.964 4.937-8.016 11.281-8.797 18.137-.747 6.448.599 13.092 3.84 18.72-1.885 1.191-3.657 2.59-5.276 4.2-4.808 4.782-7.822 10.885-8.716 17.495-.128.933-.212 1.876-.253 2.817-.432 1.585-2.066 6.549-6.617 11.37-7.458 7.904-19.092 11.911-34.578 11.911-5.523 0-10 4.477-10 10s4.477 10 10 10c10.059 0 18.61-1.467 25.864-3.874-.666 6.85.998 13.864 4.764 19.635-1.121.844-2.194 1.767-3.206 2.774-8.348 8.303-11.188 21.059-7.161 32.129l-3.106-.008-51.3-27.697v-132.93l63.77-32.317 160.525-.01c-4.493 16.573-19.724 28.793-37.771 28.793z"/><path d="m388.781 153.3 63.954-63.954c3.905-3.905 3.905-10.237 0-14.143-3.905-3.904-10.237-3.904-14.143 0l-56.167 56.168-16.757-20.337c-3.512-4.262-9.813-4.87-14.077-1.358-4.262 3.512-4.87 9.814-1.358 14.077l23.76 28.835c1.793 2.176 4.421 3.494 7.237 3.629.161.008.321.012.481.012 2.644 0 5.19-1.05 7.07-2.929z"/><path d="m232.774 340.372c-1.641-3.936-5.701-6.463-9.963-6.144-4.353.325-8.047 3.522-9.013 7.776-1.979 8.723 8.173 15.507 15.498 10.366 3.78-2.653 5.255-7.732 3.478-11.998z"/><path d="m1.654 404.992c5.1 7.799 17.622 4.411 18.281-4.815.628-8.783-10.125-14.08-16.687-8.142-3.628 3.282-4.3 8.896-1.594 12.957z"/></svg>