<svg width="49" height="28" viewBox="0 0 49 28" fill="none" xmlns="http://www.w3.org/2000/svg">
<path d="M0 5C0 2.23858 2.23858 0 5 0H43.6621C46.4235 0 48.6621 2.23858 48.6621 5V23C48.6621 25.7614 46.4235 28 43.6621 28H5C2.23857 28 0 25.7614 0 23V5Z" fill="#E8E2DF"/>
<path d="M3.76562 5.02066C3.76562 4.2208 4.41404 3.57239 5.2139 3.57239H11.9725C12.7724 3.57239 13.4208 4.2208 13.4208 5.02066C13.4208 5.82052 12.7724 6.46894 11.9725 6.46894H5.2139C4.41404 6.46894 3.76562 5.82052 3.76562 5.02066Z" fill="#0F4C81"/>
<ellipse cx="24.3311" cy="15.6414" rx="9.17242" ry="9.17241" fill="#0F4C81"/>
<circle cx="24.3793" cy="15.6896" r="6.32414" fill="#E8E2DF"/>
</svg>
