<svg id="Capa_1" enable-background="new 0 0 512 512" height="512" viewBox="0 0 512 512" width="512" xmlns="http://www.w3.org/2000/svg"><g><path d="m436.046 242.001c-23.286-55.887-71.11-97.151-128.137-112.945 14.216-13.657 23.091-32.834 23.091-54.056 0-41.355-33.645-75-75-75s-75 33.645-75 75c0 21.222 8.875 40.399 23.091 54.056-57.027 15.795-104.851 57.058-128.137 112.945-24.792.026-44.954 20.202-44.954 44.999 0 19.709 12.742 36.487 30.416 42.561 6.498 101.691 91.281 182.439 194.584 182.439s188.086-80.748 194.584-182.439c17.674-6.074 30.416-22.852 30.416-42.561 0-24.797-20.162-44.973-44.954-44.999zm-180.046-212.001c24.813 0 45 20.187 45 45s-20.187 45-45 45-45-20.187-45-45 20.187-45 45-45zm0 122c62.485 0 119.13 35.405 147.014 90h-294.028c27.884-54.595 84.529-90 147.014-90zm0 270c-8.271 0-15-6.729-15-15s6.729-15 15-15 15 6.729 15 15-6.729 15-15 15zm15 59.311v-31.891c17.459-6.192 30-22.865 30-42.42 0-24.813-20.187-45-45-45s-45 20.187-45 45c0 19.555 12.541 36.228 30 42.42v31.891c-79.035-7.157-142.154-70.276-149.311-149.311h328.622c-7.157 79.035-70.276 142.154-149.311 149.311zm165-179.311h-360c-8.271 0-15-6.729-15-15s6.729-15 15-15h360c8.271 0 15 6.729 15 15s-6.729 15-15 15z"/></g></svg>