<svg width="49" height="28" viewBox="0 0 49 28" fill="none" xmlns="http://www.w3.org/2000/svg">
<path d="M0 8C0 3.58172 3.58172 0 8 0H40.6621C45.0804 0 48.6621 3.58172 48.6621 8V26C48.6621 27.1046 47.7666 28 46.6621 28H2C0.895428 28 0 27.1046 0 26V8Z" fill="#E8E2DF"/>
<path d="M7.91699 26.5294C7.91699 23.8222 10.1116 21.6276 12.8188 21.6276H36.0358C38.7431 21.6276 40.9377 23.8222 40.9377 26.5294C40.9377 27.3416 40.2793 28 39.4671 28H9.38755C8.57538 28 7.91699 27.3416 7.91699 26.5294Z" fill="#0F4C81"/>
<circle cx="12.1653" cy="12.069" r="4.24828" fill="#0F4C81"/>
<circle cx="37.2483" cy="12.2483" r="4.24828" fill="#0F4C81"/>
</svg>
