<?xml version="1.0" encoding="utf-8"?>
<!-- Generator: Adobe Illustrator 21.0.0, SVG Export Plug-In . SVG Version: 6.00 Build 0)  -->
<svg version="1.1" id="Capa_1" xmlns="http://www.w3.org/2000/svg" xmlns:xlink="http://www.w3.org/1999/xlink" x="0px" y="0px"
	 viewBox="0 0 244.3 55.4" style="enable-background:new 0 0 244.3 55.4;" xml:space="preserve">
<style type="text/css">
	.st0{fill:#192A38;}
</style>
<title>CREAR</title>
<g>
	<path class="st0" d="M53.2,42.5L47,36c-0.8-0.8-2.2-0.8-3,0c-3.8,3.7-7.6,6.2-13.1,6.3c-2.8,0.1-2.8,4.4,0,4.3
		c5.8-0.1,10.3-2.4,14.5-6.1l3.2,3.4c-4.6,4-9.6,6.8-15.9,7.1S19.9,50,15,45.8C4.7,36.9,4.7,20,14.6,10.8c2-1.9-1-4.9-3-3
		C0,18.4,0,38.4,12,48.8c5.7,5,13.2,7,20.7,6.6c8.2-0.5,14.6-4.2,20.5-9.8C54,44.7,54,43.3,53.2,42.5z"/>
	<path class="st0" d="M53.4,10.8C45.1,1.5,32-2,20.3,2.4c-2.6,1-1.4,5.2,1.1,4.1c9.5-3.7,20.2-1.5,27.4,5.6l-3.4,3.2
		c-7.6-6.6-18.7-8.7-26.9-1.6s-8.4,20.8-0.4,28.1c2,1.9,5.1-1.1,3-3c-6.3-5.9-6.3-16.5,0.4-22.1c7.1-5.9,16.5-2.9,22.4,3.1
		c0.8,0.8,2.2,0.8,3,0l6.4-6.1C54.2,13,54.2,11.6,53.4,10.8z"/>
	<path class="st0" d="M136.7,40.9h-6.4c-2.8,0-2.8,4.3,0,4.3h4.2v4.7h-22V20.6c0-2.8-4.3-2.8-4.3,0V52c0,1.2,1,2.1,2.1,2.1h26.4
		c1.2,0,2.1-1,2.1-2.1v-9C138.8,41.8,137.9,40.9,136.7,40.9z"/>
	<path class="st0" d="M136.7,14.9c1.2,0,2.1-1,2.1-2.1v-9c0-1.2-1-2.1-2.1-2.2h-26.3c-2.8,0-2.8,4.3,0,4.3h24.2v4.7h-15.1
		c-1.2,0-2.1,1-2.1,2.1v8.7c0,1.2,1,2.1,2.1,2.1h15.1v4.5h-15.1c-1.2,0-2.1,1-2.1,2.1V43c0,2.8,4.3,2.8,4.3,0V32.5h15.1
		c1.2,0,2.1-1,2.1-2.2v-8.8c0-1.2-1-2.1-2.1-2.1h-15v-4.4H136.7z"/>
	<path class="st0" d="M195.6,51.5l-4.4-11.3c-1-2.6-5.2-1.4-4.1,1.1l3.3,8.6h-5l-3.2-8.4c-0.3-0.9-1.1-1.6-2.1-1.6h-19.7
		c-1,0-1.8,0.7-2.1,1.6l-3.3,8.4h-8.1c-2.8,0-2.8,4.3,0,4.3h9.5c1,0,1.8-0.7,2.1-1.6l3.3-8.4h16.8l3.2,8.4c0.3,0.9,1.1,1.6,2.1,1.6
		h9.5C194.8,54.2,196.1,52.8,195.6,51.5z"/>
	<path class="st0" d="M186.4,27.4l-9.3-24.1c-0.3-0.9-1.1-1.6-2.1-1.6h-9.3c-1,0-1.8,0.7-2.1,1.6l-14.8,38.5c-1,2.6,3.2,3.7,4.1,1.1
		L167.1,6h6.4l8.7,22.5C183.2,31.1,187.3,29.9,186.4,27.4z"/>
	<path class="st0" d="M178.9,32.6L172.5,16c-1-2.5-5.2-1.4-4.1,1.1l5.4,13.8H164c-2.8,0-2.8,4.3,0,4.3h12.9
		C178.1,35.3,179.4,33.9,178.9,32.6z"/>
	<path class="st0" d="M222.6,37.6l-3.7-7c-0.4-0.7-1.1-1.1-1.9-1.1h-0.9c-1.2,0-2.1,1-2.1,2.1v18.3h-4.9V12.6c0-2.8-4.3-2.8-4.3,0
		V52c0,1.2,1,2.1,2.2,2.1h9.2c1.2,0,2.1-1,2.1-2.1V38.7l0.6,1.1C220.2,42.2,223.9,40,222.6,37.6z"/>
	<path class="st0" d="M239.8,50.9l-10.3-19.4c4.5-2.4,7.5-6.1,8.2-11.5c0.7-6.1-1.5-12.7-7-16c-4.2-2.5-9.6-2.4-14.3-2.4H207
		c-2.8,0-2.8,4.3,0,4.3c5.6,0,11.5-0.5,17.1,0.4c4.7,0.8,8.2,3.8,9.2,8.7c1.1,6.1-1.5,11.2-7.3,13.5c-1.2,0.3-1.8,1.6-1.5,2.7
		c0,0.1,0.1,0.3,0.2,0.4l9.7,18.2h-5.2l-0.8-1.4c-1.3-2.4-5-0.3-3.7,2.2l1.3,2.5c0.4,0.7,1.1,1.1,1.9,1.1h10.1c1.2,0,2.2-1,2.1-2.2
		C240.1,51.6,240,51.3,239.8,50.9z"/>
	<path class="st0" d="M223.6,11c-2.4-0.6-5-0.4-7.4-0.4c-1.2,0-2.1,1-2.1,2.1v9.9c0,1.2,0.9,2.1,2.1,2.1c1.5,0,3.1,0,4.6-0.1
		c2.8-0.1,2.8-4.4,0-4.3c-0.8,0-1.7,0.1-2.5,0.1v-5.7c2.7-0.1,6.1,0,6.3,2.9c0.1,2.8,4.4,2.8,4.3,0C228.7,14.5,226.8,11.8,223.6,11z
		"/>
	<path class="st0" d="M81.8,37.6l-3.7-7c-0.4-0.7-1.1-1.1-1.9-1.1h-0.8c-1.2,0-2.1,1-2.1,2.1v18.3h-4.9V12.6c0-2.8-4.3-2.8-4.3,0V52
		c0,1.2,1,2.1,2.1,2.1h9.2c1.2,0,2.1-1,2.1-2.1V38.7l0.6,1.1C79.3,42.2,83,40,81.8,37.6z"/>
	<path class="st0" d="M98.9,50.9L88.6,31.6c4.5-2.4,7.5-6.1,8.2-11.5c0.8-6.1-1.5-12.7-7-16c-4.1-2.5-9.6-2.4-14.3-2.4h-9.4
		c-2.8,0-2.8,4.3,0,4.3c5.6,0,11.5-0.5,17.1,0.4c4.7,0.8,8.2,3.8,9.2,8.7c1.1,6.1-1.5,11.2-7.3,13.5c-1.2,0.3-1.8,1.6-1.5,2.7
		c0,0.2,0.1,0.3,0.2,0.4l9.7,18.2h-5.2l-0.8-1.4c-1.3-2.4-5-0.3-3.7,2.2l1.3,2.5c0.4,0.7,1.1,1.1,1.9,1.1h10c1.2,0,2.2-1,2.1-2.2
		C99.2,51.6,99.1,51.3,98.9,50.9z"/>
	<path class="st0" d="M82.7,11c-2.4-0.6-5-0.4-7.4-0.4c-1.2,0-2.1,1-2.1,2.1v9.9c0,1.2,1,2.1,2.1,2.1c1.5,0,3.1,0,4.6-0.1
		c2.8-0.1,2.8-4.4,0-4.3c-0.8,0-1.7,0.1-2.5,0.1v-5.7c2.7-0.1,6.1,0,6.3,2.9c0.1,2.8,4.4,2.8,4.3,0C87.9,14.5,86,11.8,82.7,11z"/>
</g>
</svg>
