<svg width="46" height="28" viewBox="0 0 46 28" fill="none" xmlns="http://www.w3.org/2000/svg">
<path d="M36.2012 17.6267C33.6889 17.6267 31.6523 15.5901 31.6523 13.0779L31.6523 8.52902C31.6523 6.01676 33.6889 3.98018 36.2012 3.98018L38.4756 3.98018C42.244 3.98018 45.2989 7.03506 45.2989 10.8034C45.2989 14.5718 42.244 17.6267 38.4756 17.6267L36.2012 17.6267Z" fill="#0F4C81"/>
<path d="M0 5C0 2.23858 2.23858 0 5 0H31.8729C34.6343 0 36.8729 2.23858 36.8729 5V9.56354C36.8729 19.7457 28.6186 28 18.4365 28C8.25428 28 0 19.7457 0 9.56354V5Z" fill="#E8E2DF"/>
</svg>
