<svg width="54" height="45" viewBox="0 0 54 45" fill="none" xmlns="http://www.w3.org/2000/svg">
<rect x="9.05884" y="19.61" width="35.7353" height="25.3901" rx="2" fill="#E8E2DF"/>
<path d="M25.5489 2.92705C25.8483 2.00574 27.1517 2.00574 27.4511 2.92705L28.8574 7.25532C28.9913 7.66734 29.3752 7.9463 29.8085 7.9463H34.3595C35.3282 7.9463 35.731 9.18592 34.9473 9.75532L31.2654 12.4303C30.9149 12.685 30.7683 13.1364 30.9021 13.5484L32.3085 17.8766C32.6078 18.798 31.5533 19.5641 30.7696 18.9947L27.0878 16.3197C26.7373 16.065 26.2627 16.065 25.9122 16.3197L22.2304 18.9947C21.4467 19.5641 20.3922 18.798 20.6915 17.8766L22.0979 13.5484C22.2317 13.1364 22.0851 12.685 21.7346 12.4303L18.0527 9.75532C17.269 9.18592 17.6718 7.9463 18.6405 7.9463H23.1915C23.6248 7.9463 24.0087 7.66734 24.1426 7.25532L25.5489 2.92705Z" fill="#E8E2DF"/>
<path d="M2.30059 14.7894C1.54901 14.2048 1.96238 13 2.91454 13L21.1569 13C21.3793 13 21.5953 13.0741 21.7708 13.2106L28.1994 18.2106C28.951 18.7952 28.5376 20 27.5855 20L9.34311 20C9.12073 20 8.9047 19.9259 8.72917 19.7894L2.30059 14.7894Z" fill="#0F4C81"/>
<path d="M51.6994 14.7894C52.451 14.2048 52.0376 13 51.0855 13H32.3431C32.1207 13 31.9047 13.0741 31.7292 13.2106L25.3006 18.2106C24.549 18.7952 24.9624 20 25.9145 20H44.6569C44.8793 20 45.0953 19.9259 45.2708 19.7894L51.6994 14.7894Z" fill="#0F4C81"/>
</svg>
