<?xml version="1.0" encoding="utf-8"?>
<!-- Generator: Adobe Illustrator 21.0.0, SVG Export Plug-In . SVG Version: 6.00 Build 0)  -->
<svg version="1.1" id="Capa_1" xmlns="http://www.w3.org/2000/svg" xmlns:xlink="http://www.w3.org/1999/xlink" x="0px" y="0px"
	 viewBox="0 0 345.5 55.9" style="enable-background:new 0 0 345.5 55.9;" xml:space="preserve">
<style type="text/css">
	.st0{fill:#192A38;}
</style>
<title>DES</title>
<path class="st0" d="M167,43.1l-6.1-6.4c-0.8-0.8-2.2-0.8-3,0c-3.8,3.6-7.5,6-12.8,6.2c-2.7,0.1-2.7,4.3,0,4.2
	c5.7-0.1,10.1-2.4,14.2-6l3.2,3.3c-4.5,3.9-9.4,6.6-15.6,7c-6.2,0.4-12.5-1.1-17.4-5.2c-10.1-8.7-10.1-25.3-0.4-34.3
	c2-1.8-1-4.9-3-3c-11.3,10.5-11.3,30.1,0.4,40.3c5.6,4.9,13,6.9,20.3,6.4c8.1-0.5,14.4-4.1,20.1-9.6C167.8,45.2,167.8,43.9,167,43.1
	z"/>
<path class="st0" d="M167.2,11.9c-8.1-9.2-21-12.5-32.5-8.2c-2.5,1-1.4,5.1,1.1,4.1c9.3-3.6,19.8-1.4,26.9,5.5l-3.3,3.2
	C151.9,10,141,8,133,14.9s-8.3,20.4-0.4,27.6c2,1.8,5-1.1,3-3c-6.2-5.8-6.2-16.2,0.4-21.7c6.9-5.8,16.2-2.8,22,3
	c0.8,0.8,2.2,0.8,3,0l6.3-6C168,14.1,168,12.7,167.2,11.9z"/>
<path class="st0" d="M340.9,10.1c-6-9-18.3-7.1-27.8-7.1c-1.2,0-2.1,0.9-2.1,2.1v38c0,2.7,4.2,2.7,4.2,0V7.3h7.1
	c5.5,0,11.6-0.1,15,5C338.8,14.5,342.4,12.4,340.9,10.1z"/>
<path class="st0" d="M345.2,51.4l-10.1-19c5.1-2.7,8-7.3,8.2-13.5c0.1-2.7-4.1-2.7-4.2,0c-0.1,5.2-2.6,8.6-7.4,10.5
	c-1.1,0.3-1.8,1.5-1.4,2.7c0,0.1,0.1,0.3,0.2,0.4l9.5,17.8h-5.1l-10.1-19c-0.4-0.6-1.1-1-1.8-1h-0.8c-1.2,0-2.1,0.9-2.1,2.1v17.9
	h-6.9c-2.7,0-2.7,4.2,0,4.2h9c1.2,0,2.1-0.9,2.1-2.1V39.3l7.5,14.2c0.4,0.6,1.1,1,1.8,1h9.8c1.2,0,2.1-1,2.1-2.1
	C345.4,52,345.4,51.7,345.2,51.4z"/>
<path class="st0" d="M331.7,13.3c-2.7-1.9-6.5-1.5-9.7-1.5c-1.2,0-2.1,0.9-2.1,2.1v9.7c0,2.7,4.2,2.7,4.2,0V16c1.1,0,2.2,0,3.4,0.1
	c1,0.1,2.1,0.4,2.6,1.5c0.5,1.2,0.2,2.6-0.8,3.4c-2.1,1.7,0.9,4.7,3,3C335.6,21.4,335.1,15.7,331.7,13.3z"/>
<path class="st0" d="M252.2,10.2c-6-9.1-18.4-7.1-27.9-7.1c-1.2,0-2.1,1-2.1,2.1v38.1c0,2.7,4.2,2.7,4.2,0v-36h7.1
	c5.5,0,11.7-0.1,15.1,5C250.1,14.6,253.7,12.4,252.2,10.2z"/>
<path class="st0" d="M256.5,51.5l-10.1-19c5.1-2.7,8-7.3,8.2-13.5c0.1-2.7-4.2-2.7-4.2,0c-0.1,5.2-2.6,8.7-7.4,10.5
	c-1.1,0.3-1.8,1.5-1.4,2.7c0,0.1,0.1,0.3,0.2,0.4l9.5,17.9h-5.1l-10.1-19c-0.4-0.6-1.1-1-1.8-1h-0.8c-1.2,0-2.1,1-2.1,2.1v18h-6.9
	c-2.7,0-2.7,4.2,0,4.2h9c1.2,0,2.1-1,2.1-2.1V39.4l7.5,14.2c0.4,0.6,1.1,1,1.8,1h9.8c1.2,0,2.1-1,2.1-2.2
	C256.8,52.2,256.7,51.8,256.5,51.5L256.5,51.5z"/>
<path class="st0" d="M244.6,13.3c-2.7-1.9-6.5-1.5-9.7-1.5c-1.2,0-2.1,1-2.1,2.1v9.7c0,2.7,4.2,2.7,4.2,0v-7.6c1.1,0,2.3,0,3.4,0.1
	c1.1,0.1,2.1,0.4,2.6,1.5c0.5,1.2,0.2,2.6-0.8,3.4c-2.1,1.7,0.9,4.7,3,3C248.5,21.4,248,15.7,244.6,13.3z"/>
<path class="st0" d="M74.3,41.4h-6.2c-2.7,0-2.7,4.2,0,4.2h4.1v4.6H50.6V21.6c0-2.7-4.2-2.7-4.2,0v30.8c0,1.2,0.9,2.1,2.1,2.1h25.8
	c1.2,0,2.1-0.9,2.1-2.1v-8.9C76.4,42.4,75.5,41.4,74.3,41.4z"/>
<path class="st0" d="M74.3,16c1.2,0,2.1-0.9,2.1-2.1V5.1c0-1.2-0.9-2.1-2.1-2.1H48.5c-2.7,0-2.7,4.2,0,4.2h23.7v4.6H57.4
	c-1.2,0-2.1,0.9-2.1,2.1v8.6c0,1.2,0.9,2.1,2.1,2.1h14.8V29H57.4c-1.2,0-2.1,0.9-2.1,2.1v12.4c0,2.7,4.2,2.7,4.2,0V33.2h14.8
	c1.2,0,2.1-0.9,2.1-2.1v-8.6c0-1.2-0.9-2.1-2.1-2.1H59.6V16H74.3z"/>
<path class="st0" d="M5.1,37V7.1c6.3-0.1,12.9-0.4,19,1c2.5,0.5,3.6-3.4,1.1-3.9C17.9,2.6,10.4,3,3,3c-1.1,0-2,0.9-2,2V37
	C1,39.6,5.1,39.6,5.1,37z"/>
<path class="st0" d="M36,10.5c-1.7-2-4.5,0.9-2.9,2.9c8.8,10.6,7.6,32.9-8.2,36.4C18,51.3,10.1,50.5,3,50.5c-2.6,0-2.6,4.1,0,4.1
	c9.5,0,21.5,1.9,29.6-3.8C45.5,41.7,45.4,21.8,36,10.5z"/>
<path class="st0" d="M12,15.8c4.3,0,9.2-0.3,12.9,2.3C30.3,22,30.6,31,28,36.5c-1.1,2.3,2.4,4.4,3.5,2c3.2-6.6,3-15.9-2-21.7
	c-4.4-5-11.3-5.1-17.5-5.1C9.4,11.7,9.4,15.8,12,15.8z"/>
<path class="st0" d="M10,22.5v21.2c0,1.1,0.9,2,2,2c3,0.1,6,0,9-0.3c2.6-0.3,2.6-4.3,0-4.1c-2.3,0.2-4.6,0.3-7,0.3V22.5
	C14,19.9,10,19.9,10,22.5z"/>
<path class="st0" d="M108.6,28c-1.8-1.9-4.7,1-2.9,2.9c3.3,3.5,5.4,7.6,4.1,12.5c-1,3.6-3.8,6.5-7.4,7.6c-7.3,2.4-13.5-1-17.3-6.9
	l4.2-2.5c2.1,3,4.6,5.3,8.5,5.6c2.6,0.2,2.6-3.9,0-4.1c-3-0.2-4.7-2.9-6.1-5.3c-0.6-1-1.8-1.3-2.8-0.7l-7.6,4.6
	c-0.9,0.6-1.3,1.8-0.7,2.8c4.9,9.2,15.4,14.6,25.4,9.4c4.2-2.2,7.2-6.2,7.9-10.8C115.1,37.1,112.6,32.2,108.6,28z"/>
<path class="st0" d="M100.8,38.9c1.6,2,4.5-0.9,2.9-2.9c-4.9-6.1-15-10-16.8-18.4c-1.3-6,3.9-11.2,9.6-11.7c5.1-0.4,8.8,2.1,12,5.4
	l-3.6,3.2c-1.8-2.1-4.1-3.8-6.9-4s-5.9,1.5-6.5,4.5c-0.4,2.6,3.5,3.6,3.9,1.1c0.3-1.9,3.2-1.5,4.2-0.9c1.3,0.9,2.4,2,3.2,3.2
	c0.6,1,1.9,1.3,2.8,0.7c0.1-0.1,0.2-0.2,0.3-0.3l6.7-5.9c0.8-0.8,0.8-2.1,0-2.9c-4.3-4.9-9.5-8.7-16.4-8.2
	c-5.5,0.4-10.7,3.7-12.9,8.9C78.2,24,94.2,30.7,100.8,38.9z"/>
<path class="st0" d="M183,3h-9c-1.1,0-2,0.9-2,2v19.6c0,2.6,4.1,2.6,4.1,0V7.1h4.9v43.4H176v-4.3c0-2.6-4.1-2.6-4.1,0v6.3
	c0,1.1,0.9,2,2,2h9c1.1,0,2-0.9,2-2V5.1C185,3.9,184.1,3.1,183,3z"/>
<path class="st0" d="M199.4,46.1v4.4h-4.9V16.2c0-2.6-4.1-2.6-4.1,0v36.4c0,1.1,0.9,2,2,2h9c1.1,0,2-0.9,2-2v-6.4
	C203.5,43.5,199.4,43.5,199.4,46.1z"/>
<path class="st0" d="M214,22.5v6.7h-12.6c-1.1,0-2,0.9-2,2v4.6c0,2.6,4.1,2.6,4.1,0v-2.6H216c1.1,0,2-0.9,2-2v-8.7
	C218.1,19.9,214,19.9,214,22.5z"/>
<path class="st0" d="M216,3h-23.6c-2.6,0-2.6,4.1,0,4.1H214v4.8h-12.6c-1.1,0-2,0.9-2,2v8.6c0,1.1,0.9,2,2,2h7.1
	c2.6,0,2.6-4.1,0-4.1h-5.1v-4.5H216c1.1,0,2-0.9,2-2V5.1C218,4,217.1,3.1,216,3z"/>
<path class="st0" d="M308.9,51.9l-4.3-11.1c-1-2.5-5.1-1.4-4.1,1.1l3.2,8.5h-4.9l-3.1-8.2c-0.3-0.9-1.1-1.5-2-1.5h-19.3
	c-0.9,0-1.8,0.6-2,1.5l-3.2,8.2h-7.9c-2.7,0-2.7,4.2,0,4.2h9.4c0.9,0,1.8-0.6,2-1.5l3.2-8.2h16.4l3.1,8.2c0.3,0.9,1.1,1.5,2,1.5h9.4
	C308.1,54.5,309.4,53.2,308.9,51.9z"/>
<path class="st0" d="M299.8,28.2l-9.1-23.7c-0.3-0.9-1.1-1.5-2-1.6h-9.1c-0.9,0-1.8,0.6-2,1.5l-14.6,37.8c-1,2.5,3.1,3.6,4.1,1.1
	l14-36.2h6.3l8.5,22.1C296.7,31.8,300.7,30.7,299.8,28.2z"/>
<path class="st0" d="M292.5,33.3l-6.3-16.2c-1-2.5-5.1-1.4-4.1,1.1l5.3,13.6h-9.6c-2.7,0-2.7,4.2,0,4.2h12.7
	C291.7,36,293,34.6,292.5,33.3z"/>
</svg>
