<?xml version="1.0" encoding="utf-8"?>
<!-- Generator: Adobe Illustrator 21.0.0, SVG Export Plug-In . SVG Version: 6.00 Build 0)  -->
<svg version="1.1" id="Capa_1" xmlns="http://www.w3.org/2000/svg" xmlns:xlink="http://www.w3.org/1999/xlink" x="0px" y="0px"
	 viewBox="0 0 323.9 329.3" style="enable-background:new 0 0 323.9 329.3;" xml:space="preserve">
<style type="text/css">
	.st0{fill:#E16E7E;}
	.st1{fill:#F6EE86;}
	.st2{fill:#EED076;}
	.st3{fill:#E7889D;}
	.st4{fill:#4E5660;}
</style>
<g>
	<g>
		<path class="st0" d="M4.8,260.1c1.6,19.9,20.7,34.4,33.9,41.9c4.2,2.4,9.4,2.4,13.7,0c13.2-7.5,32.3-22,33.9-41.9
			c1.2-14.2-9.6-26.7-23.8-26.8c-6.6,0-12.6,2.6-17,6.9c-4.4-4.3-10.4-6.9-17-6.9C14.4,233.3,3.7,245.9,4.8,260.1z"/>
	</g>
	<g>
		<path class="st0" d="M36.4,30.7c1.6,19.2,20,33.2,32.8,40.5c4.1,2.3,9.1,2.3,13.2,0c12.8-7.3,31.2-21.3,32.8-40.5
			c1.1-13.7-9.2-25.8-23-25.9c-6.4,0-12.2,2.5-16.4,6.6c-4.2-4.1-10-6.7-16.4-6.6C45.7,4.8,35.3,17,36.4,30.7z"/>
	</g>
	<g>
		<ellipse class="st1" cx="165.8" cy="163" rx="153.4" ry="150"/>
		<path class="st2" d="M268.8,274.2C55.9,287.2,37.4,122.4,124,18.6C59.6,36.4,12.5,94.3,12.5,163c0,82.9,68.7,150,153.4,150
			C205.5,313.1,241.6,298.3,268.8,274.2z"/>
		<g>
			<g>
				<path class="st3" d="M105.2,176.7c0,15.6-15.9,28.2-35.4,28.3c-19.6,0-35.5-12.6-35.5-28.2c0-15.6,15.9-28.2,35.4-28.3
					C89.3,148.4,105.2,161.1,105.2,176.7z"/>
				<path class="st3" d="M226.5,176.6c0,15.6,15.9,28.2,35.5,28.2c19.6,0,35.4-12.7,35.4-28.3c0-15.6-15.9-28.2-35.5-28.2
					C242.3,148.3,226.5,161,226.5,176.6L226.5,176.6z"/>
				<path class="st4" d="M195.6,164.9c0-18.4-13.3-20.1-29.8-20.1S136,146.6,136,165c0,18.4,13.3,33.3,29.8,33.3
					C182.3,198.3,195.6,183.3,195.6,164.9z"/>
			</g>
			<path class="st3" d="M17.8,135.8c11.7,25.3,43.7,35.3,64.7,38.9c6.7,1.1,13.5-1.3,18-6.5c13.8-16.2,31.9-44.5,24.6-71.4
				c-5.2-19.2-25.4-30.6-44.1-23.9c-8.7,3.1-15.3,9.4-19,17.2c-7.8-3.5-16.9-4.1-25.6-0.9C17.6,96.1,9.5,117.8,17.8,135.8z"/>
			<path class="st3" d="M313.9,135.8c-11.7,25.3-43.7,35.3-64.7,38.9c-6.7,1.1-13.5-1.3-18-6.5c-13.8-16.2-31.9-44.5-24.6-71.4
				c5.2-19.2,25.4-30.6,44.1-23.9c8.7,3.1,15.3,9.4,19,17.2c7.8-3.5,16.9-4.1,25.6-0.9C314.1,96.1,322.2,117.8,313.9,135.8z"/>
			<g>
				<path class="st0" d="M231.1,72.2c-11.4,3.1-21,12.2-24.4,24.6c-7.3,26.9,10.8,55.1,24.6,71.4c4.4,5.2,11.2,7.7,18,6.5
					c9.5-1.6,21.2-4.5,32.2-9.5C233.9,154.2,223,99.2,231.1,72.2L231.1,72.2z"/>
				<path class="st0" d="M100.5,168.2c3.4-4,7.1-8.8,10.6-14.1c-56.7-1.4-70.4-41.2-67.6-66.7c-2.4,0.3-4.9,0.9-7.3,1.8
					c-18.7,6.9-26.8,28.6-18.5,46.7c11.7,25.3,43.7,35.3,64.7,38.9C89.2,175.9,96,173.4,100.5,168.2z"/>
			</g>
		</g>
	</g>
	<g>
		<path class="st0" d="M233.4,277c1.6,19.2,20,33.2,32.8,40.5c4.1,2.3,9.1,2.3,13.2,0c12.8-7.3,31.2-21.3,32.8-40.5
			c1.1-13.7-9.2-25.8-23-25.9c-6.4,0-12.2,2.5-16.4,6.6c-4.2-4.1-10-6.7-16.4-6.6C242.6,251.2,232.3,263.3,233.4,277z"/>
	</g>
	<path d="M298.1,247.9c23.7-35.2,30.9-77.3,22.5-116.7c4.3-16.3-2-33.8-16.2-42.8c-12.1-21.4-29.4-40-50.2-53.7
		c-2.2-1.4-5.1-0.8-6.6,1.3c-1.4,2.2-0.8,5.1,1.3,6.6C265.1,53.2,279,67,289.8,82.8c-5.9-1-12-0.5-17.8,1.4
		C261.8,68,240.5,61,222.1,70.6c-25.5,13.3-34.8,53.4,5.5,100.7c5.4,6.3,13.9,9.6,22.4,8.1c23.6-4,49.7-13.8,63.4-33.3
		c4.2,35.3-4.6,70.7-25.9,100.3c-5.3,0.3-10.4,2.1-14.8,5.2c-10.8-7.7-26.6-7.2-36.6,3.8c-9.6,10.5-9.4,24.8-3,37.2
		c-35.4,17.6-77,20.6-114.6,8.2c-2.5-0.8-5.2,0.5-6,3c-0.8,2.5,0.5,5.2,3,6c40.6,13.3,85.1,9.8,122.8-9.2c7.6,9.7,18.1,16.8,25.5,21
		c5.5,3.1,12.4,3.1,17.9,0c12.3-7,33.3-22.1,35.1-44.2C317.9,264.3,310.1,252.1,298.1,247.9L298.1,247.9z M309.6,133.9
		c-11.2,24.4-43.2,33.1-61.2,36.2c-5.1,0.9-10.2-1-13.6-4.9c-11.8-13.9-30.7-41.1-23.6-67c2.2-8.2,7.8-15.2,15.3-19
		c14.9-7.8,32.2-1.1,39,13.1c1.1,2.3,3.9,3.3,6.2,2.3c8.1-3.7,17.6-3.7,26.7,1.5C311.3,103.5,315.9,120.1,309.6,133.9L309.6,133.9z
		 M307.4,276.6c-1.5,18.4-21.8,31.8-30.4,36.7c-2.6,1.5-5.9,1.5-8.5,0c-8.6-4.9-28.8-18.3-30.4-36.7c-0.5-5.4,1.4-10.9,5-14.8
		c7.2-7.9,19.1-7.7,26.3-0.6c1.8,1.8,4.8,1.8,6.6,0c7.2-7.1,19.1-7.2,26.3,0.6C306,265.8,307.9,271.2,307.4,276.6L307.4,276.6z
		 M131.3,165c0,20.5,15,38,34.5,38h0c19,0,34.5-17.1,34.5-38.1c0-10.3-3.8-17.4-11.3-21.2c-6-3-13.6-3.6-23.2-3.7
		C152.9,140.1,131.3,140.1,131.3,165L131.3,165z M165.9,149.6c7.1,0,14.2,0.3,18.8,2.6c2.9,1.4,6.1,4.2,6.1,12.7
		c0,15.8-11.2,28.6-25,28.6h0c-14.4,0-25-13.5-25-28.6c0-13.2,7.4-15.4,25-15.4L165.9,149.6L165.9,149.6z M109.6,70.6
		C91.2,61,69.8,68,59.7,84.2c-5.8-1.9-11.9-2.3-17.8-1.4C83.1,22,163.4,1.1,229.4,31.6c2.4,1.1,5.2,0.1,6.3-2.3
		c1.1-2.4,0.1-5.2-2.3-6.3C196.3,5.9,154.5,3.9,117,15.8C109.2-0.2,89.5-4.6,75.8,5.2C71.1,1.8,65.4,0,59.4,0
		c-16.6,0.1-29,14.7-27.7,31c0.9,10.5,6.1,20.4,15.5,29.6C39.6,69.1,33,78.3,27.3,88.4c-14.1,9-20.4,26.4-16.2,42.7
		c-7.1,33.2-3,67.6,11.7,98c-14.2,3-24,16.5-22.7,31.3c1.9,22.8,23.6,38.4,36.3,45.6c5.7,3.2,12.7,3.2,18.3,0
		c5.9-3.3,14-8.7,21.1-15.8c5.8,4,11.9,7.5,18.3,10.7c2.3,1.2,5.2,0.2,6.4-2.1c1.2-2.3,0.2-5.2-2.1-6.4C43.3,265,10.9,207,18.2,146
		c13.8,19.6,40,29.4,63.5,33.4c8.2,1.4,16.8-1.6,22.4-8.1c6.3-7.4,15.1-19.2,21-32.9C139.2,105.3,128.3,80.4,109.6,70.6L109.6,70.6z
		 M41.2,30.3C40.3,19.4,48.4,9.6,59.4,9.5c4.9-0.1,9.5,1.8,13,5.3c1.8,1.8,4.8,1.8,6.6,0c8.5-8.3,22.7-6.7,28.8,4.2
		c-20.3,7.8-38.8,19.7-54.2,34.9C46.1,46.3,41.8,38.4,41.2,30.3z M68,284.6c-6.1,5.9-12.9,10.3-18,13.2c-2.8,1.6-6.2,1.6-9,0
		c-9-5.1-29.9-19-31.5-38.2c-0.9-10.9,6.9-20.9,17.9-21.6C37.5,255.7,51.2,271.6,68,284.6L68,284.6z M96.8,165.1
		c-3.3,3.9-8.5,5.8-13.6,4.9c-18-3-49.9-11.8-61.2-36.2c-7.2-15.6-0.3-34.3,15.8-40.2c7.2-2.7,15-2.4,22,0.8
		c2.4,1.1,5.1,0.1,6.2-2.3c6.9-14.3,24.3-20.8,39-13.1c7.5,3.9,13,10.8,15.3,19C127.5,124,108.7,151.2,96.8,165.1z"/>
</g>
</svg>
