<svg id="Layer" xmlns="http://www.w3.org/2000/svg" viewBox="0 0 384 384"><defs><style>.cls-1{fill:#192a38;}</style></defs><title>enter</title><path class="cls-1" d="M312.84,216.52l-52.72,51.36-53-51.36a16,16,0,1,0-22.32,22.92l52.72,51.36a31.94,31.94,0,0,0,45-.15l52.57-51.21a16,16,0,1,0-22.34-22.92Z" transform="translate(-64 -64)"/><path class="cls-1" d="M83.94,216.16a16.06,16.06,0,0,0-18.1,13.58,189.06,189.06,0,0,0,0,52.51A16,16,0,0,0,81.66,296a15.68,15.68,0,0,0,2.28-.16,16,16,0,0,0,13.58-18.1,156.29,156.29,0,0,1,0-43.49,16,16,0,0,0-13.58-18.1Z" transform="translate(-64 -64)"/><path class="cls-1" d="M448,256c0-105.87-86.14-192-192-192A191.31,191.31,0,0,0,85,168.72a16,16,0,1,0,28.5,14.56A159.44,159.44,0,0,1,256,96c88.22,0,160,71.78,160,160S344.22,416,256,416a159.46,159.46,0,0,1-142.55-87.28A16,16,0,0,0,85,343.28,191.33,191.33,0,0,0,256,448C361.86,448,448,361.87,448,256Z" transform="translate(-64 -64)"/></svg>