<svg id="Layer" xmlns="http://www.w3.org/2000/svg" viewBox="0 0 384 384"><defs><style>.cls-1{fill:#fdf1ff;}</style></defs><title>home</title><path class="cls-1" d="M291.17,180.54a16,16,0,0,0-22.62.3L217.34,233.4a31.94,31.94,0,0,0-.15,45l51.36,52.72a16,16,0,1,0,22.92-22.32l-51.36-53,51.36-52.72A16,16,0,0,0,291.17,180.54Z" transform="translate(-64 -64)"/><path class="cls-1" d="M428.06,216.16a16,16,0,0,0-13.58,18.1,156.29,156.29,0,0,1,0,43.49,16,16,0,0,0,13.58,18.1,15.68,15.68,0,0,0,2.28.16,16,16,0,0,0,15.82-13.74,189.06,189.06,0,0,0,0-52.51,16.06,16.06,0,0,0-18.1-13.58Z" transform="translate(-64 -64)"/><path class="cls-1" d="M256,448A191.33,191.33,0,0,0,427,343.28a16,16,0,0,0-28.5-14.56A159.46,159.46,0,0,1,256,416c-88.22,0-160-71.78-160-160S167.78,96,256,96a159.44,159.44,0,0,1,142.54,87.28A16,16,0,1,0,427,168.72,191.31,191.31,0,0,0,256,64C150.14,64,64,150.13,64,256S150.14,448,256,448Z" transform="translate(-64 -64)"/></svg>