<svg width="45" height="29" viewBox="0 0 45 29" fill="none" xmlns="http://www.w3.org/2000/svg">
<path d="M0.151367 2C0.151367 0.895431 1.0468 0 2.15137 0H42.7763C43.8809 0 44.7763 0.895431 44.7763 2V26C44.7763 27.1046 43.8809 28 42.7763 28H2.15137C1.0468 28 0.151367 27.1046 0.151367 26V2Z" fill="#E8E2DF"/>
<mask id="mask0" mask-type="alpha" maskUnits="userSpaceOnUse" x="0" y="1" width="45" height="28">
<path d="M0.151367 3C0.151367 1.89543 1.0468 1 2.15137 1H42.7763C43.8809 1 44.7763 1.89543 44.7763 3V26.0937C44.7763 27.1983 43.8809 28.0937 42.7763 28.0937H2.15137C1.0468 28.0937 0.151367 27.1983 0.151367 26.0937V3Z" fill="#E8E2DF"/>
</mask>
<g mask="url(#mask0)">
<ellipse cx="37.1615" cy="7.72914" rx="3.89583" ry="3.89583" fill="#0F4C81"/>
<path d="M17.7306 7.50597C17.9308 7.24913 18.3192 7.24913 18.5193 7.50597L34.0584 27.4426C34.3143 27.771 34.0804 28.25 33.6641 28.25H2.58591C2.1696 28.25 1.93562 27.771 2.19155 27.4426L17.7306 7.50597Z" fill="#0F4C81"/>
<path d="M31.499 17.5067C31.6992 17.2496 32.0879 17.2496 32.2881 17.5067L41.5018 29.3413C41.7575 29.6697 41.5235 30.1484 41.1073 30.1484H22.6798C22.2636 30.1484 22.0296 29.6697 22.2853 29.3413L31.499 17.5067Z" fill="#0F4C81"/>
</g>
</svg>
