<svg width="29" height="28" viewBox="0 0 29 28" fill="none" xmlns="http://www.w3.org/2000/svg">
<path d="M3.39083 21.7984C4.67817 26.789 5.19617 28.7971 19.1031 27.7155C21.9268 27.4958 23.4872 26.8707 24.5168 25.4405C26.1814 25.1592 27.4492 23.7107 27.4492 21.9661C27.4492 21.4709 27.347 20.9996 27.1627 20.572C28.2205 19.9639 28.9329 18.8226 28.9329 17.5148C28.9329 16.6708 28.6361 15.896 28.1413 15.2892C28.6361 14.6824 28.9329 13.9077 28.9329 13.0636C28.9329 11.1174 27.3552 9.53975 25.409 9.53975C25.3859 9.53975 25.3629 9.53998 25.3399 9.54042C23.926 9.16879 21.5643 9.16879 17.6194 9.16879C17.6194 8.70831 17.622 8.26282 17.6246 7.83288C17.6591 2.02921 17.6767 -0.942291 10.9426 0.266402C10.9503 0.351049 10.9589 0.443358 10.9682 0.542628L10.9683 0.543407C11.1834 2.8373 11.7465 8.84417 8.90246 9.91066C6.97496 11.24 5.59531 11.3307 4.61838 11.3949C2.86926 11.5099 2.41113 11.5401 2.41113 18.4421C2.84436 19.6799 3.13302 20.799 3.39083 21.7984Z" fill="#E8E2DF"/>
<path d="M0 13.4345C0 11.4883 1.57769 9.91064 3.52386 9.91064C5.47004 9.91064 7.04773 11.4883 7.04773 13.4345V24.377C7.04773 26.3232 5.47004 27.9009 3.52386 27.9009C1.57769 27.9009 0 26.3232 0 24.377V13.4345Z" fill="#0F4C81"/>
</svg>
