<?xml version="1.0" encoding="iso-8859-1"?>
<!-- Generator: Adobe Illustrator 18.1.1, SVG Export Plug-In . SVG Version: 6.00 Build 0)  -->
<svg version="1.1" id="Capa_1" xmlns="http://www.w3.org/2000/svg" xmlns:xlink="http://www.w3.org/1999/xlink" x="0px" y="0px"
	 viewBox="0 0 477.189 477.189" style="enable-background:new 0 0 477.189 477.189;" xml:space="preserve">
<g>
	<g>
		<path style="fill:#010002;" d="M426.512,110.159c-3.243-1.512-6.674-2.309-9.892-2.309c-4.65,0-8.519,1.626-10.949,4.56
			c-14.323,17.436-27.426,51.34-37.985,78.579c-4.853,12.599-11.364,29.458-15.778,37.367
			c-2.406-23.191,7.99-106.801,12.006-138.999l0.065-0.52c2.788-22.37,3.227-26.296,3.081-28.044
			c-1.073-12.453-5.422-20.882-12.933-25.044c-7.592-4.219-17.899-3.308-29.344,2.561c-5.739,2.959-8.064,14.331-16.428,66.028
			l-0.033,0.228c-4.601,28.401-15.192,93.796-23.329,104.241c-7.243-15.916-12.591-103.843-14.892-141.901
			c-1.609-26.654-2.561-41.96-3.593-46.634c-2.178-9.795-13.632-18.801-25.507-20.086c-9.876-1.187-18.362,3.308-22.858,11.835
			c-7.828,7.608-7.145,34.701-3.577,99.006c1.699,30.604,5.202,93.82-0.252,100.502c-9.819-1.772-24.061-42.212-42.334-120.23
			c-5.129-21.85-6.73-28.426-8.568-31.384c-3.325-10.088-16.428-18.606-28.71-18.606c-1.049,0-2.073,0.065-3.089,0.187
			c-6.487,0.829-21.5,5.723-20.297,33.238c5.975,38.448,13.396,66.89,20.598,94.495l0.146,0.553
			c4.308,16.534,8.381,32.157,11.973,49.43c8.462,40.781,2.349,65.289,2.276,65.565c-0.553,2.528-1.447,4.032-2.666,4.495
			c-0.439,0.171-0.992,0.252-1.609,0.252c-3.585,0-8.771-2.747-11.421-4.487c-5.454-12.534-32.791-72.369-60.655-82.351l-1-0.374
			l-1.04,0.024c-10.494,0.26-18.436,3.682-23.597,10.169c-8.177,10.258-6.064,24.199-5.511,27.003l0.35,1.016
			c0.203,0.431,20.078,43.764,22.248,63.427c1.878,16.859,16.355,36.001,27.995,51.381l0.48,0.626
			c3.796,5.032,7.072,9.38,9.616,13.371c34.026,41.033,89.829,77.449,90.284,77.742c6.869,5.877,10.535,11.347,10.648,15.843
			c0.065,2.943-1.569,4.585-1.626,4.641l-1.357,1.236l7.478,8.397l153.947-0.098l8.633-29.604
			c26.133-83.489,26.979-156.174,26.946-156.662c0.26-2.658,7.722-28.019,13.729-48.511l0.171-0.52
			c11.973-40.822,26.865-91.617,30.401-111.085C440.281,122.385,435.477,114.305,426.512,110.159z"/>
	</g>
</g>
<g>
</g>
<g>
</g>
<g>
</g>
<g>
</g>
<g>
</g>
<g>
</g>
<g>
</g>
<g>
</g>
<g>
</g>
<g>
</g>
<g>
</g>
<g>
</g>
<g>
</g>
<g>
</g>
<g>
</g>
</svg>
