<svg id="Capa_1" enable-background="new 0 0 512 512" height="512" viewBox="0 0 512 512" width="512" xmlns="http://www.w3.org/2000/svg"><path d="m484.652 128.472h-362.305c-4.142 0-7.5 3.358-7.5 7.5s3.358 7.5 7.5 7.5h362.306c6.809 0 12.348 5.539 12.348 12.348v75.411c0 6.809-5.539 12.348-12.348 12.348h-86.613c.352-3.287.44-6.62.228-9.972-1.869-29.591-25.617-53.06-55.24-54.589-26.434-1.356-50.606 15.25-58.721 40.411-1.534 4.756-5.907 7.952-10.882 7.952h-34.849c-4.975 0-9.348-3.195-10.882-7.952-8.115-25.159-32.25-41.772-58.721-40.411-29.623 1.529-53.371 24.997-55.24 54.589-.212 3.352-.124 6.686.228 9.973h-86.613c-6.809 0-12.348-5.539-12.348-12.348v-75.412c0-6.809 5.539-12.348 12.348-12.348h64.887c4.142 0 7.5-3.358 7.5-7.5s-3.358-7.5-7.5-7.5h-64.887c-15.08 0-27.348 12.268-27.348 27.348v75.411c0 15.08 12.268 27.348 27.348 27.348h90.262c2.964 7.619 7.516 14.615 13.477 20.475 1.248 1.453 1.249 2.907.001 4.36-12.103 11.896-18.428 28.461-17.355 45.449 1.919 30.371 27.857 54.666 58.274 54.666 25.252-.001 47.883-16.296 55.687-40.489 1.534-4.756 5.907-7.952 10.882-7.952h34.849c4.975 0 9.348 3.196 10.882 7.952 8.114 25.159 32.26 41.774 58.72 40.411 29.623-1.53 53.371-24.998 55.241-54.588 1.073-16.986-5.252-33.552-17.354-45.449-1.249-1.453-1.249-2.907 0-4.36 5.962-5.86 10.513-12.856 13.477-20.475h90.262c15.079 0 27.348-12.268 27.348-27.348v-75.411c-.001-15.08-12.27-27.348-27.349-27.348zm-114.255 139.884c-7.066 6.944-7.084 18.792 0 25.754 8.997 8.844 13.698 21.166 12.899 33.805-1.366 21.623-19.395 39.437-41.044 40.554-19.686 1.008-37.64-11.335-43.671-30.035-3.539-10.974-13.649-18.347-25.157-18.347h-34.849c-11.508 0-21.618 7.373-25.157 18.347-6.032 18.701-23.996 31.057-43.671 30.035-21.649-1.117-39.678-18.931-41.044-40.553-.798-12.642 3.903-24.963 12.9-33.806 7.065-6.946 7.083-18.791 0-25.754-8.996-8.843-13.698-21.165-12.9-33.805 1.366-21.623 19.394-39.437 41.043-40.554 19.682-1.01 37.64 11.334 43.672 30.035 3.54 10.974 13.649 18.347 25.157 18.347h34.849c11.508 0 21.618-7.373 25.157-18.347 6.031-18.701 23.978-31.055 43.672-30.035 21.649 1.118 39.678 18.931 41.043 40.554.799 12.641-3.902 24.962-12.899 33.805z"/></svg>