<svg width="99" height="67" viewBox="0 0 99 67" fill="none" xmlns="http://www.w3.org/2000/svg">
<path d="M98.2871 25.2831C98.2871 17.9471 92.34 12 85.004 12H51V32.9878C51 46.0458 61.5856 56.6313 74.6436 56.6313C87.7015 56.6313 98.2871 46.0458 98.2871 32.9878V25.2831Z" fill="#0F4C81"/>
<path d="M58.7551 22.5274C58.7551 20.6822 60.251 19.1864 62.0962 19.1864H87.191C89.0362 19.1864 90.532 20.6822 90.532 22.5274V33.3673C90.532 42.1423 83.4185 49.2558 74.6436 49.2558C65.8686 49.2558 58.7551 42.1423 58.7551 33.3673V22.5274Z" fill="#8BA9D4"/>
<circle cx="74.1978" cy="33.4194" r="5" fill="#E8E2DF"/>
<rect width="5.86359" height="14.5619" transform="matrix(-1 0 0 1 51.259 12.1571)" fill="#0F4C81"/>
<path d="M0 25.4402C0 18.1041 5.94706 12.1571 13.2831 12.1571H47.2871V33.1449C47.2871 46.2028 36.7015 56.7884 23.6435 56.7884C10.5856 56.7884 0 46.2028 0 33.1449V25.4402Z" fill="#0F4C81"/>
<path d="M39.5317 22.6845C39.5317 20.8393 38.0359 19.3435 36.1907 19.3435H11.0959C9.25065 19.3435 7.75481 20.8393 7.75481 22.6845V33.5244C7.75481 42.2994 14.8683 49.4129 23.6433 49.4129C32.4182 49.4129 39.5317 42.2994 39.5317 33.5244V22.6845Z" fill="#8BA9D4"/>
<path d="M32.707 20.9998L25.0124 12.9496C23.0083 10.8529 19.6406 13.2783 20.994 15.8436L22.2687 18.2595C23.0257 19.6944 22.2367 21.4592 20.6625 21.8518L16.7484 22.8279C14.9009 23.2887 14.2261 25.5633 15.5235 26.957L24.2451 36.3266C25.5331 37.7103 24.8785 39.968 23.0499 40.448L20.6908 41.0673C18.8349 41.5545 18.197 43.8643 19.5397 45.2349L25.3451 51.1608C26.9448 52.7937 29.5161 50.6773 28.2212 48.7935C27.6101 47.9046 27.8761 46.6844 28.8017 46.1304L33.3872 43.3858C34.5332 42.6999 34.9377 41.2344 34.3058 40.0578L28.4991 29.2451C27.765 27.8781 28.4404 26.1796 29.9128 25.69L31.6885 25.0995C33.4295 24.5206 33.9746 22.3261 32.707 20.9998Z" fill="#E8E2DF"/>
</svg>
