<svg width="30" height="30" viewBox="0 0 30 30" fill="none" xmlns="http://www.w3.org/2000/svg">
<g opacity="0.5">
<circle cx="15" cy="15" r="15" fill="#E8E2DF"/>
<path d="M13.4 16.96C13.4 16.3333 13.54 15.8133 13.82 15.4C14.1 14.9733 14.5 14.5133 15.02 14.02C15.3533 13.7 15.5933 13.44 15.74 13.24C15.9 13.04 15.98 12.8267 15.98 12.6C15.98 12.3067 15.8533 12.08 15.6 11.92C15.3467 11.7467 15.0267 11.66 14.64 11.66C14.2133 11.66 13.8133 11.7867 13.44 12.04C13.0667 12.28 12.7733 12.6067 12.56 13.02L9 11.24C9.53333 10.2267 10.32 9.43333 11.36 8.86C12.4133 8.28667 13.7067 8 15.24 8C16.8667 8 18.1867 8.33333 19.2 9C20.2133 9.66667 20.72 10.6067 20.72 11.82C20.72 12.38 20.62 12.8733 20.42 13.3C20.2333 13.7133 20.0067 14.0667 19.74 14.36C19.4733 14.64 19.1333 14.9533 18.72 15.3C18.2933 15.6733 17.9867 15.9733 17.8 16.2C17.6133 16.4267 17.52 16.68 17.52 16.96H13.4ZM15.46 22.52C14.6867 22.52 14.0533 22.2867 13.56 21.82C13.0667 21.3533 12.82 20.7867 12.82 20.12C12.82 19.44 13.0667 18.88 13.56 18.44C14.0533 17.9867 14.6867 17.76 15.46 17.76C16.2333 17.76 16.8667 17.9867 17.36 18.44C17.8533 18.88 18.1 19.44 18.1 20.12C18.1 20.7867 17.8533 21.3533 17.36 21.82C16.8667 22.2867 16.2333 22.52 15.46 22.52Z" fill="#0F4C81"/>
</g>
</svg>
