<svg width="106" height="49" viewBox="0 0 106 49" fill="none" xmlns="http://www.w3.org/2000/svg">
<path d="M47.2894 34.4978L47.2894 34.4978L47.2967 34.5012C49.3854 35.4585 51.6595 35.9313 54.1048 35.9313C57.382 35.9313 60.3527 35.2061 62.9918 33.7351C65.6289 32.2653 67.69 30.2045 69.1601 27.5678C70.6741 24.8846 71.4182 21.8311 71.4182 18.4352C71.4182 15.0408 70.6748 12.0056 69.1582 9.36012C67.6882 6.72499 65.6278 4.66534 62.9918 3.19614C60.3527 1.72513 57.382 1 54.1048 1C51.58 1 49.2444 1.4924 47.1134 2.49122C46.2575 2.87614 45.4578 3.33934 44.716 3.88126C44.5627 3.99327 44.2641 4.04222 43.9544 3.91912C43.6483 3.79742 43.6001 3.6304 43.6001 3.55906C43.6001 2.31382 42.5907 1.30436 41.3454 1.30436H39.8001C37.7013 1.30436 36 3.00571 36 5.10443V24.3397V43.4532C36 45.6192 37.7559 47.375 39.9218 47.375C42.0878 47.375 43.8436 45.6192 43.8436 43.4532V35.9908C43.8436 35.4955 44.2081 34.9563 44.993 34.5965C45.7721 34.2394 46.6761 34.2107 47.2894 34.4978ZM62.1796 23.9132L62.1796 23.9132L62.1757 23.9202C61.3293 25.4659 60.1598 26.6716 58.6553 27.5531C57.2001 28.389 55.5299 28.8181 53.6178 28.8181C51.7522 28.8181 50.0786 28.3916 48.5758 27.5504C47.0749 26.67 45.9077 25.4666 45.0623 23.9246C44.2175 22.3434 43.7828 20.522 43.7828 18.4352C43.7828 16.3495 44.217 14.5537 45.0556 13.0189C45.9453 11.4649 47.1178 10.28 48.577 9.44098L48.577 9.44101L48.5837 9.43709C50.0861 8.55763 51.7566 8.11317 53.6178 8.11317C55.5314 8.11317 57.2026 8.54291 58.6586 9.38011L58.6586 9.38016L58.6678 9.38535C60.1589 10.2218 61.3241 11.419 62.171 13.0024L62.1776 13.0147L62.1846 13.0268C63.0609 14.5604 63.5137 16.353 63.5137 18.4352C63.5137 20.5169 63.061 22.334 62.1796 23.9132ZM97.4856 34.1298C98.1673 35.0342 99.2341 35.566 100.367 35.566C103.369 35.566 105.058 32.1116 103.213 29.7422L97.0223 21.7909C95.316 19.5994 95.3098 16.5307 97.0074 14.3324L102.683 6.98262C104.472 4.66591 102.821 1.30436 99.8935 1.30436C98.7914 1.30436 97.7528 1.81987 97.0864 2.69764L95.3677 4.96159C92.5724 8.64376 87.0386 8.65293 84.231 4.98004L82.4962 2.71055C81.8188 1.82427 80.7669 1.30436 79.6514 1.30436C76.6814 1.30436 75.0024 4.71174 76.8119 7.06681L82.4031 14.3437C84.0902 16.5395 84.0874 19.596 82.3963 21.7888L76.2128 29.8066C74.3998 32.1575 76.0756 35.566 79.0443 35.566C80.159 35.566 81.2099 35.0462 81.8863 34.1603L84.1484 31.1978C86.961 27.5141 92.5125 27.5314 95.302 31.2326L97.4856 34.1298Z" fill="#0F4C81" stroke="#0F4C81" stroke-width="2"/>
<path d="M7.35861 34.8543L7.36596 34.8565L7.37335 34.8586C9.90057 35.5746 12.5288 35.9313 15.2548 35.9313C19.6752 35.9313 23.2874 35.0573 25.9874 33.1983L25.9902 33.1964C28.7603 31.2752 30.1943 28.6424 30.1943 25.3745C30.1943 23.012 29.579 21.034 28.221 19.579C26.9651 18.2334 25.4362 17.289 23.6527 16.7513C22.0064 16.2038 19.8689 15.7086 17.2578 15.2596C15.3249 14.897 13.8329 14.5781 12.7713 14.3031C11.8369 14.051 11.0806 13.6651 10.4775 13.1625L9.83731 13.9307L10.4775 13.1625C10.0019 12.7661 9.74163 12.2301 9.74163 11.435C9.74163 10.4953 10.1638 9.71669 11.2195 9.05685C12.2892 8.3883 13.958 7.99143 16.3505 7.99143C18.7331 7.99143 20.8698 8.38832 22.7744 9.16529C24.5536 9.8911 26.8699 9.41856 27.8906 7.52656C28.7641 5.90728 28.3103 3.68346 26.4008 2.8849C25.4077 2.4696 24.3069 2.11566 23.102 1.82011C20.8755 1.27401 18.6448 1 16.4114 1C12.1772 1 8.68183 1.92156 6.02417 3.8687C3.33806 5.79557 1.95888 8.42656 1.95888 11.6785C1.95888 14.1216 2.59424 16.1613 3.99387 17.6574C5.28508 19.0377 6.8296 20.0233 8.61516 20.6037L8.61515 20.6037L8.622 20.6059C10.3503 21.1538 12.5327 21.6297 15.1546 22.0396C17.0475 22.3619 18.4658 22.6591 19.4288 22.9287L19.4511 22.9349L19.4736 22.9401C20.4094 23.1561 21.1324 23.504 21.6802 23.9551C22.1168 24.3147 22.3507 24.7906 22.3507 25.4962C22.3507 26.5948 21.9069 27.3609 20.9371 27.915C19.8838 28.5169 18.1751 28.879 15.6809 28.879C13.7109 28.879 11.7583 28.5895 9.82031 28.0081C8.95033 27.7471 8.14487 27.449 7.40254 27.115C5.56733 26.2894 3.10691 26.7628 2.06109 28.7498C1.26557 30.2613 1.58937 32.3208 3.29268 33.2298C4.4597 33.8526 5.81801 34.3921 7.35861 34.8543Z" fill="#E8E2DF" stroke="#E8E2DF" stroke-width="2"/>
<path d="M95 18C95 20.7614 92.7614 23 90 23C87.2386 23 85 20.7614 85 18C85 15.2386 87.2386 13 90 13C92.7614 13 95 15.2386 95 18Z" fill="#E8E2DF"/>
</svg>
