<?xml version="1.0" encoding="utf-8"?>
<!-- Generator: Adobe Illustrator 22.1.0, SVG Export Plug-In . SVG Version: 6.00 Build 0)  -->
<svg version="1.1" id="Слой_1" xmlns="http://www.w3.org/2000/svg" xmlns:xlink="http://www.w3.org/1999/xlink" x="0px" y="0px"
	 viewBox="0 0 64 64" style="enable-background:new 0 0 64 64;" xml:space="preserve">
<style type="text/css">
	.st0{fill:url(#SVGID_1_);}
</style>
<linearGradient id="SVGID_1_" gradientUnits="userSpaceOnUse" x1="4.8799" y1="32" x2="59.1201" y2="32">
	<stop  offset="0" style="stop-color:#1A6DFF"/>
	<stop  offset="1" style="stop-color:#C822FF"/>
</linearGradient>
<path class="st0" d="M37.4,18.4c-3.9,0-7.6,1.9-9.8,5.1v3.8l0.3,0.2l0.4-1.1c1.5-3.6,5.1-5.9,8.9-5.9c5.4,0,9.8,4.3,9.8,9.8v0.3v1.8
	l1.6-0.6c0.8-0.3,1.5-0.4,2.3-0.4c3.3,0,6,2.7,6,6s-2.7,6-6,6H27.7v2.2H51c4.4,0,8.1-3.7,8.1-8.1s-3.7-8.1-8.1-8.1
	c-0.5,0-1.1,0.1-1.6,0.2C48.8,23.3,43.7,18.4,37.4,18.4z M23.3,23.9c-0.8,0-1.5,0.1-2.2,0.2v21.5h2.2V23.9z M24.4,23.9v21.7h2.2
	V24.4C25.9,24.2,25.2,24,24.4,23.9z M20.1,24.4c-0.8,0.3-1.5,0.7-2.2,1.1v20.1h2.2V24.4z M16.8,26.4c-0.9,0.8-1.6,1.7-2.2,2.8v16.4
	h2.2V26.4z M11.9,30.4c-0.2,0-0.4,0-0.5,0.1v15c0.3,0.1,0.8,0.1,1.1,0.1h1.1V30.5c-0.3-0.1-0.8-0.1-1.1-0.1
	C12.3,30.4,12.1,30.4,11.9,30.4z M10.3,30.7c-0.8,0.2-1.5,0.5-2.2,1.1v12.3c0.7,0.4,1.4,0.9,2.2,1.1V30.7z M7,32.6
	c-1.3,1.4-2.2,3.3-2.2,5.3c0,2.1,0.9,3.9,2.2,5.3V32.6z"/>
</svg>
